<svg xmlns="http://www.w3.org/2000/svg" width="48" height="48" viewBox="0 0 48 48"><defs><style>.a{fill:none;}.b{fill:#ed1c24;}.c,.d{fill:#7e8082;}.c{stroke:rgba(0,0,0,0);stroke-miterlimit:10;}</style></defs><rect class="a" width="48" height="48"/><g transform="translate(1.532 1.753)"><path class="b" d="M44.651,7.015,43.233,10.63A22.038,22.038,0,0,0,3.149,16.119l4.164-.844a18.353,18.353,0,0,1,32.641-2.948L36.1,10.883l-1.388,3.532,9.655,3.62,3.806-9.7Z" transform="translate(-2.707)"/><path class="b" d="M40.052,197.823A18.357,18.357,0,0,1,6.07,195.706l-3.959-.431a22.042,22.042,0,0,0,42.505.913h-2.81a3.616,3.616,0,0,1-1.754,1.635" transform="translate(-1.815 -167.946)"/><path class="c" d="M-4101.257-4031.531a3.5,3.5,0,0,1-3.43-2.723l-20.368-.224a3.507,3.507,0,0,1-3.475,2.947,3.533,3.533,0,0,1-3.485-3.024l-.261,0-.04-.006c-.716-.107-2.472-.368-3.309-.482a1.621,1.621,0,0,1-1.436-.88l0-.007a9.549,9.549,0,0,1-.467-2.652,11,11,0,0,1,.923-4.49c.08-.143.223-.172.51-.2l.153-.014c.072,0,.156-.01.245-.017l.023,0c.177-.014.4-.032.583-.042a6.06,6.06,0,0,0,2.228-.425,3.831,3.831,0,0,0,.678-.339,51.8,51.8,0,0,1,5.835-2.764,20.625,20.625,0,0,1,6.716-.874c.332,0,.682,0,1.041.011a27.679,27.679,0,0,1,6.254.6,7.717,7.717,0,0,1,2.094.8c.209.109.444.231.726.364.222.117,5.43,2.858,7.2,3.251l.788.151c.156.037,1.52.363,2.807.726a10.387,10.387,0,0,1,3.14,1.337,1.857,1.857,0,0,1,.681.787,29.046,29.046,0,0,1,.565,4.754.511.511,0,0,1-.335.426c-.117.041-.513.111-.517.112s-1.566.191-2.218.26l-.436,0A3.518,3.518,0,0,1-4101.257-4031.531Zm-26.819-12.708a5.272,5.272,0,0,0-1.919.326,3.916,3.916,0,0,0-1.4.908,3.893,3.893,0,0,0-.858,1.381,5.058,5.058,0,0,0-.291,1.741,6.094,6.094,0,0,0,.239,1.736,3.714,3.714,0,0,0,.747,1.391,3.489,3.489,0,0,0,1.313.926,5.049,5.049,0,0,0,1.948.339,7.691,7.691,0,0,0,.94-.053,5.782,5.782,0,0,0,.811-.158,6.065,6.065,0,0,0,.747-.256c.229-.1.481-.21.771-.35l-.724-1.853c-.294.127-.542.228-.753.31a6.092,6.092,0,0,1-.583.192,3.528,3.528,0,0,1-.507.1,4.365,4.365,0,0,1-.525.029,1.926,1.926,0,0,1-1.471-.571,2.545,2.545,0,0,1-.537-1.782,2.566,2.566,0,0,1,.532-1.736,1.852,1.852,0,0,1,1.464-.605,3.7,3.7,0,0,1,.4.023,3.792,3.792,0,0,1,.479.087c.18.045.374.1.577.176s.455.172.712.286l.723-1.865a7.933,7.933,0,0,0-1.272-.5A5.347,5.347,0,0,0-4128.076-4044.239Zm20.754,2.353a3.546,3.546,0,0,0-1.371.25,3.017,3.017,0,0,0-1.014.676,2.913,2.913,0,0,0-.636,1.007,3.479,3.479,0,0,0-.222,1.247,3.4,3.4,0,0,0,.25,1.328,3.053,3.053,0,0,0,.688,1.013,3.041,3.041,0,0,0,1.033.646,3.589,3.589,0,0,0,1.284.228,3.459,3.459,0,0,0,1.335-.25,3.006,3.006,0,0,0,1.021-.687,3.042,3.042,0,0,0,.648-1.025,3.461,3.461,0,0,0,.228-1.252,3.884,3.884,0,0,0-.2-1.247,2.742,2.742,0,0,0-.6-1.007,2.877,2.877,0,0,0-1.014-.676A3.776,3.776,0,0,0-4107.322-4041.886Zm-9.788-.011a3.9,3.9,0,0,0-1.424.25,3.406,3.406,0,0,0-1.1.681,2.969,2.969,0,0,0-.712,1.025,3.251,3.251,0,0,0-.251,1.27,3.672,3.672,0,0,0,.211,1.265,2.718,2.718,0,0,0,.642,1.007,2.933,2.933,0,0,0,1.085.67,4.519,4.519,0,0,0,1.551.239,4.938,4.938,0,0,0,1.23-.157,6.6,6.6,0,0,0,1.2-.437l-.665-1.748c-.242.1-.453.182-.624.239s-.333.1-.462.134a3.1,3.1,0,0,1-.344.064,2.442,2.442,0,0,1-.286.018,1.2,1.2,0,0,1-.922-.355,1.374,1.374,0,0,1-.327-.962,1.36,1.36,0,0,1,.333-.932,1.154,1.154,0,0,1,.9-.373c.1,0,.2,0,.3.012a2.3,2.3,0,0,1,.333.052c.116.026.25.064.408.116s.329.115.531.192l.724-1.712a4.573,4.573,0,0,0-1.079-.419A5.305,5.305,0,0,0-4117.109-4041.9Zm3.313-.361v6.571h2.3v-8.4h-2.963v1.829Zm-10.009,2.424v4.147h2.3v-5.989h-3.2v1.841Zm1.026-4.5a1.362,1.362,0,0,0-.956.332,1.074,1.074,0,0,0-.361.822,1.033,1.033,0,0,0,.35.845,1.5,1.5,0,0,0,.968.284,1.306,1.306,0,0,0,.934-.32,1.069,1.069,0,0,0,.338-.81,1.118,1.118,0,0,0-.332-.822A1.277,1.277,0,0,0-4122.78-4044.333Zm15.471,6.978c-.612,0-.922-.454-.922-1.351,0-.881.311-1.328.922-1.328a.759.759,0,0,1,.688.326,1.9,1.9,0,0,1,.209,1C-4106.411-4037.809-4106.713-4037.355-4107.309-4037.355Z" transform="translate(4137.532 4060.695)"/><path class="d" d="M99.173,200.8V197.6H98.016v-.992h3.475v.992h-1.151V200.8Z" transform="translate(-84.278 -169.096)"/><path class="d" d="M122.228,206.032a1.715,1.715,0,0,1-.114.624,1.516,1.516,0,0,1-.323.511,1.493,1.493,0,0,1-.508.342,1.716,1.716,0,0,1-.665.125,1.78,1.78,0,0,1-.639-.113,1.517,1.517,0,0,1-.514-.322,1.493,1.493,0,0,1-.343-.505,1.686,1.686,0,0,1-.125-.662,1.73,1.73,0,0,1,.111-.621,1.449,1.449,0,0,1,.317-.5,1.5,1.5,0,0,1,.506-.336,1.762,1.762,0,0,1,.683-.125,1.873,1.873,0,0,1,.712.125,1.433,1.433,0,0,1,.506.336,1.361,1.361,0,0,1,.3.5,1.918,1.918,0,0,1,.1.621m-1.61.673q.447,0,.447-.673a.939.939,0,0,0-.1-.5.377.377,0,0,0-.343-.162q-.459,0-.459.661t.459.673" transform="translate(-102.318 -175.834)"/><path class="d" d="M145.4,207.611a2.383,2.383,0,0,1-.439-.046.917.917,0,0,1-.328-.137.759.759,0,0,1-.23-.253,1.389,1.389,0,0,1-.142-.395l-.465-2.095,1.1-.238.407,2.025a.57.57,0,0,0,.046.156.231.231,0,0,0,.064.084.16.16,0,0,0,.067.032.337.337,0,0,0,.061.006h.052l.57-2.3,1.092.255-.819,3.255a1.5,1.5,0,0,1-.16.4.893.893,0,0,1-.267.284,1.183,1.183,0,0,1-.4.168,2.539,2.539,0,0,1-.564.055,2.706,2.706,0,0,1-.52-.049,3.644,3.644,0,0,1-.445-.113l.174-.923.166.052c.064.019.132.037.2.052s.142.029.212.041a1.192,1.192,0,0,0,.192.017.86.86,0,0,0,.189-.023q.1-.023.142-.168Z" transform="translate(-123.638 -175.834)"/><path class="d" d="M173.06,206.032a1.715,1.715,0,0,1-.113.624,1.517,1.517,0,0,1-.323.511,1.493,1.493,0,0,1-.508.342,1.716,1.716,0,0,1-.665.125,1.78,1.78,0,0,1-.639-.113,1.517,1.517,0,0,1-.514-.322,1.493,1.493,0,0,1-.343-.505,1.685,1.685,0,0,1-.125-.662,1.73,1.73,0,0,1,.111-.621,1.448,1.448,0,0,1,.317-.5,1.5,1.5,0,0,1,.506-.336,1.762,1.762,0,0,1,.683-.125,1.873,1.873,0,0,1,.712.125,1.433,1.433,0,0,1,.506.336,1.361,1.361,0,0,1,.3.5,1.92,1.92,0,0,1,.1.621m-1.61.673q.447,0,.447-.673a.94.94,0,0,0-.1-.5.377.377,0,0,0-.343-.162q-.459,0-.459.661t.459.673" transform="translate(-146.026 -175.834)"/><path class="d" d="M197.115,203.246a1.811,1.811,0,0,1-.192.064q-.122.035-.267.067t-.293.052a1.966,1.966,0,0,1-.744-.035.977.977,0,0,1-.375-.18.825.825,0,0,1-.244-.328,1.25,1.25,0,0,1-.087-.493v-1.12h-.372v-.929h.372v-.789h1.139v.789h.779v.929h-.779v1.016a.2.2,0,0,0,.029.113.171.171,0,0,0,.076.064.407.407,0,0,0,.1.029.55.55,0,0,0,.1.009,1.744,1.744,0,0,0,.2-.018,3.2,3.2,0,0,0,.36-.075Z" transform="translate(-167.273 -171.626)"/><path class="d" d="M216.806,207.738l-.285-.366a2.384,2.384,0,0,1-.4.174,1.62,1.62,0,0,1-.532.087,1.77,1.77,0,0,1-.427-.052,1.148,1.148,0,0,1-.381-.168.877.877,0,0,1-.273-.308.956.956,0,0,1-.1-.464.856.856,0,0,1,.119-.47.935.935,0,0,1,.305-.3,1.276,1.276,0,0,1,.412-.16,2.2,2.2,0,0,1,.442-.046h.506v-.075a.255.255,0,0,0-.114-.212.557.557,0,0,0-.334-.084,1.587,1.587,0,0,0-.311.038,4.644,4.644,0,0,0-.508.148l-.291-.783a3.839,3.839,0,0,1,.6-.18,3.134,3.134,0,0,1,.668-.07,2.162,2.162,0,0,1,.666.087,1.032,1.032,0,0,1,.421.247.857.857,0,0,1,.218.389,1.974,1.974,0,0,1,.061.508v1.033l.314.412Zm-.587-1.369h-.482a.247.247,0,0,0-.215.081.25.25,0,0,0,.006.328.239.239,0,0,0,.2.084,1.852,1.852,0,0,0,.247-.017.937.937,0,0,0,.241-.064v-.412Z" transform="translate(-184.35 -175.834)"/></g></svg>